REM DIRINDEX 1\2,1\3,1\4,1\5,1\6
REM DIRNAME folder01,folder02,folder03,folder04,folder05,folder06
TITLE ""
FILE "DISC2Track30.mp3" MP3
  TRACK 01 AUDIO
    TITLE "0:"
    INDEX 01 00:00:00
  TRACK 02 AUDIO
    TITLE "2:cjc129_1872"
    INDEX 01 00:03:15
  TRACK 03 AUDIO
    TITLE "0:"
    INDEX 01 00:08:70
  TRACK 04 AUDIO
    TITLE "3:cjc129_1873"
    INDEX 01 00:10:06
  TRACK 05 AUDIO
    TITLE "0:"
    INDEX 01 00:11:23
  TRACK 06 AUDIO
    TITLE "5:cjc129_1874"
    INDEX 01 00:11:58
  TRACK 07 AUDIO
    TITLE "0:"
    INDEX 01 00:13:26
  TRACK 08 AUDIO
    TITLE "4:cjc129_1875"
    INDEX 01 00:14:17
  TRACK 09 AUDIO
    TITLE "0:"
    INDEX 01 00:15:36
  TRACK 10 AUDIO
    TITLE "6:cjc129_1876"
    INDEX 01 00:15:68
  TRACK 11 AUDIO
    TITLE "0:"
    INDEX 01 00:20:14
  TRACK 12 AUDIO
    TITLE "3:cjc129_1877"
    INDEX 01 00:22:64
  TRACK 13 AUDIO
    TITLE "0:"
    INDEX 01 00:25:56
  TRACK 14 AUDIO
    TITLE "5:cjc129_1878"
    INDEX 01 00:26:09
  TRACK 15 AUDIO
    TITLE "0:"
    INDEX 01 00:29:46
  TRACK 16 AUDIO
    TITLE "4:cjc129_1879"
    INDEX 01 00:30:34
  TRACK 17 AUDIO
    TITLE "0:"
    INDEX 01 00:33:24
  TRACK 18 AUDIO
    TITLE "6:cjc129_1880"
    INDEX 01 00:33:58
  TRACK 19 AUDIO
    TITLE "0:"
    INDEX 01 00:39:58
  TRACK 20 AUDIO
    TITLE "3:cjc129_1881"
    INDEX 01 00:41:30
  TRACK 21 AUDIO
    TITLE "0:"
    INDEX 01 00:45:51
  TRACK 22 AUDIO
    TITLE "5:cjc129_1882"
    INDEX 01 00:46:06
  TRACK 23 AUDIO
    TITLE "0:"
    INDEX 01 00:47:66
  TRACK 24 AUDIO
    TITLE "4:cjc129_1883"
    INDEX 01 00:48:57
  TRACK 25 AUDIO
    TITLE "0:"
    INDEX 01 00:53:02
  TRACK 26 AUDIO
    TITLE "6:cjc129_1884"
    INDEX 01 00:53:33
  TRACK 27 AUDIO
    TITLE "0:"
    INDEX 01 00:58:38
  TRACK 28 AUDIO
    TITLE "3:cjc129_1885"
    INDEX 01 01:00:13
  TRACK 29 AUDIO
    TITLE "0:"
    INDEX 01 01:02:26
  TRACK 30 AUDIO
    TITLE "5:cjc129_1886"
    INDEX 01 01:02:57
  TRACK 31 AUDIO
    TITLE "0:"
    INDEX 01 01:04:62
  TRACK 32 AUDIO
    TITLE "4:cjc129_1887"
    INDEX 01 01:05:54
  TRACK 33 AUDIO
    TITLE "0:"
    INDEX 01 01:07:66
  TRACK 34 AUDIO
    TITLE "6:cjc129_1888"
    INDEX 01 01:08:21
  TRACK 35 AUDIO
    TITLE "0:"
    INDEX 01 01:12:11
  TRACK 36 AUDIO
    TITLE "3:cjc129_1889"
    INDEX 01 01:13:63
  TRACK 37 AUDIO
    TITLE "0:"
    INDEX 01 01:18:33
  TRACK 38 AUDIO
    TITLE "5:cjc129_1890"
    INDEX 01 01:18:62
  TRACK 39 AUDIO
    TITLE "0:"
    INDEX 01 01:20:49
  TRACK 40 AUDIO
    TITLE "4:cjc129_1891"
    INDEX 01 01:21:37
  TRACK 41 AUDIO
    TITLE "0:"
    INDEX 01 01:26:05
  TRACK 42 AUDIO
    TITLE "6:cjc129_1892"
    INDEX 01 01:26:38
  TRACK 43 AUDIO
    TITLE "0:"
    INDEX 01 01:31:61
  TRACK 44 AUDIO
    TITLE "3:cjc129_1893"
    INDEX 01 01:33:33
  TRACK 45 AUDIO
    TITLE "0:"
    INDEX 01 01:37:01
  TRACK 46 AUDIO
    TITLE "5:cjc129_1894"
    INDEX 01 01:37:34
  TRACK 47 AUDIO
    TITLE "0:"
    INDEX 01 01:38:65
  TRACK 48 AUDIO
    TITLE "4:cjc129_1895"
    INDEX 01 01:39:57
  TRACK 49 AUDIO
    TITLE "0:"
    INDEX 01 01:43:25
  TRACK 50 AUDIO
    TITLE "6:cjc129_1896"
    INDEX 01 01:43:56
  TRACK 51 AUDIO
    TITLE "0:"
    INDEX 01 01:48:52
  TRACK 52 AUDIO
    TITLE "3:cjc129_1897"
    INDEX 01 01:50:29
  TRACK 53 AUDIO
    TITLE "0:"
    INDEX 01 01:51:58
  TRACK 54 AUDIO
    TITLE "5:cjc129_1898"
    INDEX 01 01:52:14
  TRACK 55 AUDIO
    TITLE "0:"
    INDEX 01 01:57:19
  TRACK 56 AUDIO
    TITLE "4:cjc129_1899"
    INDEX 01 01:58:11
  TRACK 57 AUDIO
    TITLE "0:"
    INDEX 01 01:59:38
  TRACK 58 AUDIO
    TITLE "6:cjc129_1900"
    INDEX 01 01:59:69
  TRACK 59 AUDIO
    TITLE "0:"
    INDEX 01 02:06:01
